<?xml version="1.0" encoding="UTF-8" standalone="no"?>
<svg width="35px" height="18px" viewBox="0 0 35 18" version="1.1" xmlns="http://www.w3.org/2000/svg" xmlns:xlink="http://www.w3.org/1999/xlink">
    <!-- Generator: Sketch 39.1 (31720) - http://www.bohemiancoding.com/sketch -->
    <title>Fill 20</title>
    <desc>Created with Sketch.</desc>
    <defs></defs>
    <g id="Page-1" stroke="none" stroke-width="1" fill="none" fill-rule="evenodd">
        <g id="Ãlbum" transform="translate(-792.000000, -761.000000)" fill="#FDC804">
            <g id="FILTROS" transform="translate(185.000000, 728.000000)">
                <g id="Button-Copy-7" transform="translate(594.000000, 14.000000)">
                    <path d="M30.5,33.7104329 C26.9230101,33.7104329 24.02332,30.8119817 24.02332,27.2365201 C24.02332,23.6617197 26.9230101,20.7632685 30.5,20.7632685 C34.0769899,20.7632685 36.97668,23.6617197 36.97668,27.2365201 C36.97668,30.8119817 34.0769899,33.7104329 30.5,33.7104329 M13,27.2365201 C13,28.7869006 20.8345869,36.1348445 30.5,36.1348445 C40.1654131,36.1348445 48,28.7716943 48,27.2365201 C48,25.701346 40.1654131,19 30.5,19 C20.8345869,19 13,25.6868008 13,27.2365201 Z" id="Fill-20"></path>
                </g>
            </g>
        </g>
    </g>
</svg>