<?xml version="1.0" encoding="UTF-8" standalone="no"?>
<svg width="30px" height="32px" viewBox="0 0 30 32" version="1.1" xmlns="http://www.w3.org/2000/svg" xmlns:xlink="http://www.w3.org/1999/xlink">
    <!-- Generator: Sketch 39.1 (31720) - http://www.bohemiancoding.com/sketch -->
    <title>Fill 36</title>
    <desc>Created with Sketch.</desc>
    <defs></defs>
    <g id="Page-1" stroke="none" stroke-width="1" fill="none" fill-rule="evenodd">
        <g id="Ãlbum" transform="translate(-569.000000, -757.000000)" fill="#FDC804">
            <g id="FILTROS" transform="translate(185.000000, 728.000000)">
                <g id="Button-Copy-4" transform="translate(369.000000, 14.000000)">
                    <path d="M24.2843347,46.1278092 C24.2843347,46.1278092 35.0017295,42.8554961 40.11459,36.6446814 C45.2281362,30.4331813 46.7168728,21.3105974 42.7039356,17.6873365 C38.6909985,14.0640757 33.2537841,14.3876056 30.6644384,16.9758449 C28.0757785,19.5640842 26.1337693,24.0283857 26.0041649,26.4863905 C26.0041649,26.4863905 23.7796317,24.2024887 21.7320189,23.8337194 C18.7778608,23.3024997 14.9356723,25.1278391 15.0008174,29.8512387 C15.0652767,34.5739529 18.8903218,37.1786428 20.0656762,38.1348382 C21.3240049,39.1588927 22.9999479,40.3460829 23.8036325,42.5970834 C24.6361181,44.928281 24.2843347,46.1278092 24.2843347,46.1278092" id="Fill-36"></path>
                </g>
            </g>
        </g>
    </g>
</svg>