<?xml version="1.0" encoding="UTF-8" standalone="no"?>
<svg width="30px" height="29px" viewBox="0 0 30 29" version="1.1" xmlns="http://www.w3.org/2000/svg" xmlns:xlink="http://www.w3.org/1999/xlink">
    <!-- Generator: Sketch 39.1 (31720) - http://www.bohemiancoding.com/sketch -->
    <title>Fill 32</title>
    <desc>Created with Sketch.</desc>
    <defs></defs>
    <g id="Page-1" stroke="none" stroke-width="1" fill="none" fill-rule="evenodd">
        <g id="Ãlbum" transform="translate(-644.000000, -756.000000)" fill="#FDC804">
            <g id="FILTROS" transform="translate(185.000000, 728.000000)">
                <g id="Button-Copy-5" transform="translate(444.000000, 14.000000)">
                    <path d="M30.0353917,36.8704084 C26.7522581,36.8704084 24.0906912,34.2099788 24.0906912,30.9282479 C24.0906912,27.646517 26.7522581,24.9860874 30.0353917,24.9860874 C33.3185253,24.9860874 35.9800922,27.646517 35.9800922,30.9282479 C35.9800922,34.2099788 33.3185253,36.8704084 30.0353917,36.8704084 M45,27.749883 C45,24.353731 42.24553,21.6004378 38.8479263,21.6004378 C37.8862673,21.6004378 36.9799078,21.8270691 36.1692166,22.2200808 C36.3351152,21.6501862 36.4285714,21.049337 36.4285714,20.4258247 C36.4285714,16.8771112 33.5502304,14 30,14 C26.4492166,14 23.5714286,16.8771112 23.5714286,20.4258247 C23.5714286,21.049337 23.6643318,21.6501862 23.8302304,22.2200808 C23.0195392,21.8270691 22.1131797,21.6004378 21.1520737,21.6004378 C17.7539171,21.6004378 15,24.353731 15,27.749883 C15,31.146035 17.7539171,33.8993282 21.1520737,33.8993282 C21.1658986,33.8993282 21.1791705,33.8971171 21.1929954,33.8971171 C20.3485714,34.8075114 19.8282028,36.0224759 19.8282028,37.3618113 C19.8282028,40.1792245 22.1131797,42.4632251 24.9317972,42.4632251 C27.5529954,42.4632251 29.7102304,40.4871113 30,37.9438666 C30.2892166,40.4871113 32.4464516,42.4632251 35.0676498,42.4632251 C37.8862673,42.4632251 40.1712442,40.1792245 40.1712442,37.3618113 C40.1712442,36.0224759 39.6508756,34.8075114 38.8064516,33.8971171 C38.8202765,33.8971171 38.8335484,33.8993282 38.8479263,33.8993282 C42.24553,33.8993282 45,31.146035 45,27.749883" id="Fill-32"></path>
                </g>
            </g>
        </g>
    </g>
</svg>