<?xml version="1.0" encoding="UTF-8" standalone="no"?>
<svg width="31px" height="36px" viewBox="0 0 31 36" version="1.1" xmlns="http://www.w3.org/2000/svg" xmlns:xlink="http://www.w3.org/1999/xlink">
    <!-- Generator: Sketch 39.1 (31720) - http://www.bohemiancoding.com/sketch -->
    <title>Fill 53</title>
    <desc>Created with Sketch.</desc>
    <defs></defs>
    <g id="Page-1" stroke="none" stroke-width="1" fill="none" fill-rule="evenodd">
        <g id="Ãlbum" transform="translate(-268.000000, -753.000000)" fill="#FDC804">
            <g id="FILTROS" transform="translate(185.000000, 728.000000)">
                <g id="Button" transform="translate(69.000000, 14.000000)">
                    <path d="M19.8711626,31.3096898 C19.8711626,31.3096898 19.8444442,30.1626973 20.2881094,29.1070707 C20.9623961,27.5018435 24.5159364,23.2737145 28.0891639,23.3334537 C31.6623914,23.3931929 31.1856798,25.8931023 31.1856798,26.2501318 C31.1856798,26.6071613 30.8284977,29.7620933 26.4213765,32.3217419 C22.0149584,34.8813905 21.4194205,40.297978 22.7293227,42.7381482 C23.9632885,45.0370528 26.0051328,46.9051325 28.6847018,46.7266177 C31.3642709,46.5481029 33.7386882,45.8593452 35.4732715,44.1072299 C36.336696,43.2350377 37.7358937,41.250291 39.1653253,41.3100302 C40.5947569,41.3690666 40.5813978,42.3220824 40.5947569,42.5596335 C40.6235846,43.0797159 40.1180454,43.691164 40.1180454,43.691164 C40.1180454,43.691164 41.553805,43.600501 42.8433168,42.493569 C44.1279069,41.3908538 44.6861797,40.316954 44.5842281,38.3336129 C44.4654018,36.0122183 42.5599617,34.6431366 40.4161659,34.7619121 C38.27237,34.8813905 36.4259915,36.5477625 35.8902184,37.0242704 C35.3544452,37.5000755 34.7251578,38.1424475 33.8061872,38.3933521 C32.4955819,38.7503816 31.2454445,37.7980686 31.2454445,36.3692478 C31.2454445,34.9404269 32.674173,33.4525697 34.3419604,32.5599959 C36.0090447,31.6667193 42.8573791,27.9165038 42.8573791,21.8455964 C42.8573791,15.7739863 35.5920978,11.9640316 29.5776571,11.9640316 C23.5632164,11.9640316 16.7746467,17.5000975 15.0477977,21.7858572 C13.3209486,26.071617 16.893473,30.7144063 19.8711626,31.3096898" id="Fill-53"></path>
                </g>
            </g>
        </g>
    </g>
</svg>