<?xml version="1.0" encoding="UTF-8" standalone="no"?>
<svg width="30px" height="37px" viewBox="0 0 30 37" version="1.1" xmlns="http://www.w3.org/2000/svg" xmlns:xlink="http://www.w3.org/1999/xlink">
    <!-- Generator: Sketch 39.1 (31720) - http://www.bohemiancoding.com/sketch -->
    <title>Fill 51</title>
    <desc>Created with Sketch.</desc>
    <defs></defs>
    <g id="Page-1" stroke="none" stroke-width="1" fill="none" fill-rule="evenodd">
        <g id="Ãlbum" transform="translate(-419.000000, -754.000000)" fill="#FDC804">
            <g id="FILTROS" transform="translate(185.000000, 728.000000)">
                <g id="Button-Copy-2" transform="translate(219.000000, 14.000000)">
                    <path d="M30,34.5346533 C26.2892857,34.5346533 23.2814286,31.5280813 23.2814286,27.8189525 C23.2814286,24.1098237 26.2892857,21.1032517 30,21.1032517 C33.7107143,21.1032517 36.7185714,24.1098237 36.7185714,27.8189525 C36.7185714,31.5280813 33.7107143,34.5346533 30,34.5346533 M45,25.5206492 C45,17.5776159 38.3928571,12 29.8664286,12 C21.3392857,12 15,18.3808439 15,25.5206492 C15,32.6604544 22.0978571,38.6536069 29.11,38.6536069 C28.4442857,39.019165 26.6271429,41.5659335 26.685,43.894938 C26.685,48.1152769 31.0192857,48.8328273 33.3228571,48.5907879 C35.6264286,48.3480345 36.2021429,48.1666835 36.2328571,47.742579 C36.2628571,47.3184746 34.8385714,46.8336818 34.8078571,45.5006802 C34.7778571,44.1676785 35.3535714,42.7133002 37.1721429,40.8348174 C38.9907143,38.9563347 45,33.4636825 45,25.5206492" id="Fill-51"></path>
                </g>
            </g>
        </g>
    </g>
</svg>