<?xml version="1.0" encoding="UTF-8" standalone="no"?>
<svg width="35px" height="31px" viewBox="0 0 35 31" version="1.1" xmlns="http://www.w3.org/2000/svg" xmlns:xlink="http://www.w3.org/1999/xlink">
    <!-- Generator: Sketch 39.1 (31720) - http://www.bohemiancoding.com/sketch -->
    <title>Group 7</title>
    <desc>Created with Sketch.</desc>
    <defs></defs>
    <g id="Page-1" stroke="none" stroke-width="1" fill="none" fill-rule="evenodd">
        <g id="Ãlbum" transform="translate(-717.000000, -755.000000)" fill="#FDC804">
            <g id="FILTROS" transform="translate(185.000000, 728.000000)">
                <g id="Button-Copy-6" transform="translate(519.000000, 14.000000)">
                    <g id="Group-7" transform="translate(13.000000, 13.000000)">
                        <path d="M17.2576374,17.2499824 C10.0755773,17.2499824 3.9204307,12.8640717 1.32182565,6.62642582 C0.47157784,8.66741506 0,10.9046939 0,13.2531331 C0,22.7805637 7.72613426,30.5033969 17.2576374,30.5033969 C26.7891406,30.5033969 34.5152748,22.7805637 34.5152748,13.2531331 C34.5152748,10.9046939 34.043697,8.66741506 33.1934492,6.62642582 C30.5948441,12.8640717 24.4396975,17.2499824 17.2576374,17.2499824" id="Fill-24"></path>
                        <path d="M12.9285528,10.9626661 C13.5859464,9.87287214 13.970951,8.60085954 13.970951,7.23527521 C13.970951,3.23912943 10.730437,0 6.73258309,0 C5.64161943,0 4.61118666,0.247648471 3.68351562,0.679626201 C8.83356795,1.32548216 12.8271988,5.66355168 12.9285528,10.9626661" id="Fill-26"></path>
                        <path d="M21.586722,10.9626661 C20.9293284,9.87287214 20.5443238,8.60085954 20.5443238,7.23527521 C20.5443238,3.23912943 23.7848378,0 27.7826917,0 C28.8736554,0 29.9040882,0.247648471 30.8317592,0.679626201 C25.6817069,1.32548216 21.688076,5.66355168 21.586722,10.9626661" id="Fill-28"></path>
                    </g>
                </g>
            </g>
        </g>
    </g>
</svg>