<?xml version="1.0" encoding="UTF-8" standalone="no"?>
<svg width="43px" height="40px" viewBox="0 0 43 40" version="1.1" xmlns="http://www.w3.org/2000/svg" xmlns:xlink="http://www.w3.org/1999/xlink">
    <!-- Generator: Sketch 39.1 (31720) - http://www.bohemiancoding.com/sketch -->
    <title>Group 4</title>
    <desc>Created with Sketch.</desc>
    <defs></defs>
    <g id="Page-1" stroke="none" stroke-width="1" fill="none" fill-rule="evenodd">
        <g id="Ãlbum" transform="translate(-338.000000, -746.000000)" fill="#ED3F2C">
            <g id="FILTROS" transform="translate(185.000000, 728.000000)">
                <g id="Button-Copy" transform="translate(138.000000, 0.000000)">
                    <g id="Group-4" transform="translate(15.600000, 17.916667)">
                        <path d="M11.8530886,33.1275106 C11.8530886,29.9837999 13.496091,27.2268702 15.9703744,25.644879 C10.1514076,23.6509702 5.96403346,18.1695452 5.96403346,11.7029233 C5.96403346,6.92938065 8.25331605,2.69668268 11.7870751,0.000567603176 C4.81327981,3.33969599 0,10.4371683 0,18.6528188 C0,27.4441811 5.51334878,34.9487059 13.2850109,37.9456507 C12.3828265,36.5566447 11.8530886,34.9049194 11.8530886,33.1275106" id="Fill-47"></path>
                        <path d="M29.8020747,0 C33.3366488,2.69692594 35.6251164,6.92881304 35.6251164,11.7031666 C35.6251164,18.1697885 31.4377423,23.6504026 25.6187755,25.6443114 C28.0930588,27.2271134 29.7360612,29.9832323 29.7360612,33.1277539 C29.7360612,34.9051627 29.2071383,36.556077 28.304139,37.945894 C36.0758011,34.9489492 41.5891499,27.4436135 41.5891499,18.653062 C41.5891499,10.4366007 36.7758701,3.33993925 29.8020747,0" id="Fill-48"></path>
                        <path d="M27.0412439,33.1275106 C27.0412439,36.5598881 24.244228,39.3427654 20.7944119,39.3427654 C17.3445959,39.3427654 14.5483949,36.5598881 14.5483949,33.1275106 C14.5483949,29.6951331 17.3445959,26.9122558 20.7944119,26.9122558 C24.244228,26.9122558 27.0412439,29.6951331 27.0412439,33.1275106" id="Fill-49"></path>
                    </g>
                </g>
            </g>
        </g>
    </g>
</svg>